<svg t="1643038605164" class="icon" viewBox="0 0 1024 1024" version="1.1" xmlns="http://www.w3.org/2000/svg" p-id="2101" width="128" height="128"><path d="M806.4 1017.6h-95.085714a89.782857 89.782857 0 0 1-89.6-89.782857v-157.805714a16.64 16.64 0 0 0-16.457143-16.457143H418.742857a16.64 16.64 0 0 0-16.457143 16.457143v157.805714a89.782857 89.782857 0 0 1-89.6 89.782857h-95.085714A89.782857 89.782857 0 0 1 128 927.817143V695.954286a52.845714 52.845714 0 0 0-34.742857-16.457143 89.782857 89.782857 0 0 1-69.668572-146.285714l419.291429-493.714286a89.6 89.6 0 0 1 138.788571 0l418.742858 493.714286a89.782857 89.782857 0 0 1-69.668572 146.285714 48.457143 48.457143 0 0 0-34.925714 18.285714v230.4a89.782857 89.782857 0 0 1-89.417143 89.417143zM418.742857 680.411429h186.514286a89.782857 89.782857 0 0 1 89.6 89.6v157.805714a16.64 16.64 0 0 0 16.457143 16.64h95.085714a16.64 16.64 0 0 0 16.457143-16.64V695.954286c0-54.857143 64-89.6 107.885714-89.6a15.908571 15.908571 0 0 0 14.994286-9.508572 15.725714 15.725714 0 0 0-1.828572-17.188571l-418.56-493.714286a17.188571 17.188571 0 0 0-13.348571-6.4 16.274286 16.274286 0 0 0-12.8 6.217143l-419.291429 493.714286a15.36 15.36 0 0 0-1.645714 16.822857 15.908571 15.908571 0 0 0 14.994286 9.508571c43.885714 0 107.885714 34.925714 107.885714 89.6v232.411429a16.64 16.64 0 0 0 16.457143 16.64h95.085714a16.64 16.64 0 0 0 16.457143-16.64v-157.805714a89.782857 89.782857 0 0 1 89.6-89.6z" p-id="2102" fill="#ffffff"></path></svg>